{"title":"13HRS.2010.720p.BRRip.H264.Feel-Free","uid":5915026,"size":1283668086,"categoryP":"video","categoryS":"hd___movies","magnet":"?xt=urn:btih:1bdb60588ad92e899a6f9322da775235d1b7f2b9&amp;dn=13HRS.2010.720p.BRRip.H264.Feel-Free&amp;tr=udp%3A%2F%2Ftracker.openbittorrent.com%3A80&amp;tr=udp%3A%2F%2Fopen.demonii.com%3A1337&amp;tr=udp%3A%2F%2Ftracker.coppersurfer.tk%3A6969&amp;tr=udp%3A%2F%2Fexodus.desync.com%3A6969","seeders":0,"leechers":1,"uploader":"hiest","files":-1,"time":1288140956,"description":"Genre:Action | Horror\nLanguage:English\nIMDb:http://www.imdb.com/title/tt1411232/\nSource:720p.BluRay.x264-MeTH\n\nGeneral\nComplete name :13HRS.2010.720p.BRRip.H264.Feel-Free\nFormat : MPEG-4\nFormat profile : Base Media / Version 2\nCodec ID : mp42\nFile size : 1.19 GiB\nDuration : 1h 24mn\nOverall bit rate : 2 016 Kbps\nVideo #1\nCodec ID : avc1\nCodec ID/Info : Advanced Video Coding\nDuration : 1h 24mn\nBit rate mode : Variable\nBit rate : 1 512 Kbps\nWidth : 1 280 pixels\nHeight : 720 pixels\nDisplay aspect ratio : 16:9\nFrame rate mode : Constant\nFrame rate : 23.976 fps\nResolution : 24 bits\nColorimetry : 4:2:0\nScan type : Progressive\nBits/(Pixel*Frame) : 0.068\nStream size : 917 MiB (75%)\nAudio #2\nID : 2\nFormat : AAC\nFormat/Info : Advanced Audio Codec\nFormat version : Version 4\nFormat profile : LC\nFormat settings, SBR : No\nCodec ID : 40\nDuration : 1h 24mn\nBit rate mode : Constant\nBit rate : 501 Kbps\nNominal bit rate : 576 Kbps\nChannel(s) : 6 channels\nChannel positions : Front: L C R, Rear: L R, LFE\nSampling rate : 48.0 KHz\nResolution : 16 bits\nStream size : 304 MiB (25%)\n\nPlot:\nSarah Tyler returns to her troubled family home in the isolated countryside, for a much put-off visit. As a storm rages outside, Sarah, her family and friends shore up for the night, cut off from the outside world. But something comes out of the driving rain and darkness. Something that holds a dark secret so devastating that, in one night, it could wipe out the entire family.\n\n\n\n\n\n\n\n\n\n================================== &lt;a href=&quot;\nhttp://thepiratebay.se/user/hiest&quot; rel=&quot;nofollow&quot; target=&quot;_NEW&quot;&gt;\nhttp://thepiratebay.se/user/hiest&lt;/a&gt;\n==================================\n\n\n\n\n\n\n\n\n\nScreenshots:\n &lt;a href=&quot;\nhttp://img221.imageshack.us/img221/5319/13hrs2010720pbrriph264f.jpg&quot; rel=&quot;nofollow&quot; target=&quot;_NEW&quot;&gt;\nhttp://img221.imageshack.us/img221/5319/13hrs2010720pbrriph264f.jpg&lt;/a&gt;\n &lt;a href=&quot;\nhttp://img41.imageshack.us/img41/5319/13hrs2010720pbrriph264f.jpg&quot; rel=&quot;nofollow&quot; target=&quot;_NEW&quot;&gt;\nhttp://img41.imageshack.us/img41/5319/13hrs2010720pbrriph264f.jpg&lt;/a&gt;\n &lt;a href=&quot;\nhttp://img264.imageshack.us/img264/5319/13hrs2010720pbrriph264f.jpg&quot; rel=&quot;nofollow&quot; target=&quot;_NEW&quot;&gt;\nhttp://img264.imageshack.us/img264/5319/13hrs2010720pbrriph264f.jpg&lt;/a&gt;\n &lt;a href=&quot;\nhttp://img222.imageshack.us/img222/5319/13hrs2010720pbrriph264f.jpg&quot; rel=&quot;nofollow&quot; target=&quot;_NEW&quot;&gt;\nhttp://img222.imageshack.us/img222/5319/13hrs2010720pbrriph264f.jpg&lt;/a&gt;\n &lt;a href=&quot;\nhttp://img43.imageshack.us/img43/5319/13hrs2010720pbrriph264f.jpg&quot; rel=&quot;nofollow&quot; target=&quot;_NEW&quot;&gt;\nhttp://img43.imageshack.us/img43/5319/13hrs2010720pbrriph264f.jpg&lt;/a&gt;","torrent":{"xt":"urn:btih:1bdb60588ad92e899a6f9322da775235d1b7f2b9","amp;dn":"13HRS.2010.720p.BRRip.H264.Feel-Free","amp;tr":["udp%3A%2F%2Ftracker.openbittorrent.com%3A80","udp%3A%2F%2Fopen.demonii.com%3A1337","udp%3A%2F%2Ftracker.coppersurfer.tk%3A6969","udp%3A%2F%2Fexodus.desync.com%3A6969"],"infoHash":"1bdb60588ad92e899a6f9322da775235d1b7f2b9","infoHashBuffer":{"type":"Buffer","data":[27,219,96,88,138,217,46,137,154,111,147,34,218,119,82,53,209,183,242,185]},"announce":[],"urlList":[]}}